HIERARCHY
ROOT root
{
	OFFSET 0.000000 0.000000 0.000000
	CHANNELS 6 Xposition Yposition Zposition Zrotation Yrotation Xrotation
	JOINT lhip
	{
		OFFSET 0.058581 -0.082280 -0.017664
		CHANNELS 3 Zrotation Yrotation Xrotation
		JOINT lknee
		{
			OFFSET 0.043451 -0.386469 0.008037
			CHANNELS 3 Zrotation Yrotation Xrotation
			JOINT lankle
			{
				OFFSET -0.014790 -0.426874 -0.037428
				CHANNELS 3 Zrotation Yrotation Xrotation
				JOINT ltoe
				{
					OFFSET 0.041054 -0.060286 0.122042
					CHANNELS 3 Zrotation Yrotation Xrotation
					End Site
					{
						OFFSET 0.000000 0.000000 0.000000
					}
				}
			}
		}
	}
	JOINT rhip
	{
		OFFSET -0.060310 -0.090513 -0.013543
		CHANNELS 3 Zrotation Yrotation Xrotation
		JOINT rknee
		{
			OFFSET -0.043257 -0.383688 -0.004843
			CHANNELS 3 Zrotation Yrotation Xrotation
			JOINT rankle
			{
				OFFSET 0.019056 -0.420046 -0.034562
				CHANNELS 3 Zrotation Yrotation Xrotation
				JOINT rtoe
				{
					OFFSET -0.034840 -0.062106 0.130323
					CHANNELS 3 Zrotation Yrotation Xrotation
					End Site
					{
						OFFSET 0.000000 0.000000 0.000000
					}
				}
			}
		}
	}
	JOINT lowerback
	{
		OFFSET 0.004439 0.124404 -0.038385
		CHANNELS 3 Zrotation Yrotation Xrotation
		JOINT upperback
		{
			OFFSET 0.004488 0.137956 0.026820
			CHANNELS 3 Zrotation Yrotation Xrotation
			JOINT chest
			{
				OFFSET -0.002265 0.056032 0.002855
				CHANNELS 3 Zrotation Yrotation Xrotation
				JOINT lowerneck
				{
					OFFSET -0.013390 0.211636 -0.033468
					CHANNELS 3 Zrotation Yrotation Xrotation
					JOINT upperneck
					{
						OFFSET 0.010113 0.088937 0.050410
						CHANNELS 3 Zrotation Yrotation Xrotation
						End Site
						{
							OFFSET 0.000000 0.000000 0.000000
						}
					}
				}
				JOINT lclavicle
				{
					OFFSET 0.071702 0.114000 -0.018898
					CHANNELS 3 Zrotation Yrotation Xrotation
					JOINT lshoulder
					{
						OFFSET 0.122921 0.045205 -0.019046
						CHANNELS 3 Zrotation Yrotation Xrotation
						JOINT lelbow
						{
							OFFSET 0.255332 -0.015649 -0.022946
							CHANNELS 3 Zrotation Yrotation Xrotation
							JOINT lwrist
							{
								OFFSET 0.265709 0.012698 -0.007375
								CHANNELS 3 Zrotation Yrotation Xrotation
								End Site
								{
									OFFSET 0.000000 0.000000 0.000000
								}
							}
						}
					}
				}
				JOINT rclavicle
				{
					OFFSET -0.082954 0.112472 -0.023707
					CHANNELS 3 Zrotation Yrotation Xrotation
					JOINT rshoulder
					{
						OFFSET -0.113228 0.046853 -0.008472
						CHANNELS 3 Zrotation Yrotation Xrotation
						JOINT relbow
						{
							OFFSET -0.260127 -0.014369 -0.031269
							CHANNELS 3 Zrotation Yrotation Xrotation
							JOINT rwrist
							{
								OFFSET -0.269108 0.006794 -0.006027
								CHANNELS 3 Zrotation Yrotation Xrotation
								End Site
								{
									OFFSET 0.000000 0.000000 0.000000
								}
							}
						}
					}
				}
			}
		}
	}
}
MOTION
Frames: 11
Frame Time: 0.033333
-1.044501 0.524513 1.030879 110.410515 5.510267 92.289463 4.271029 -11.362102 -23.006112 -2.301586 -24.217524 12.117225 2.751722 9.267281 -19.820785 0.000000 -0.000000 0.000000 13.399342 19.828819 -2.875283 12.669067 45.220179 25.945234 0.781576 12.185349 -2.715964 0.000000 -0.000000 0.000000 10.025064 -0.764350 -4.185873 4.574663 -11.157138 18.082247 -0.853605 0.586157 -10.606312 -6.370207 -11.116734 9.403738 10.881341 -1.740255 14.372937 -45.130120 -15.177963 9.271866 -36.404310 -11.035433 5.945840 21.894084 -24.991131 -28.637188 13.710366 -17.596437 -5.152461 25.338195 5.783199 3.439285 38.177669 -6.270587 -10.506119 -15.964053 7.108953 -35.659672 -16.104117 12.979943 -13.332887 
-1.035193 0.529128 1.030363 108.559383 5.902559 92.545247 4.358500 -10.876095 -21.963438 -1.612245 -24.433471 9.633891 2.958208 8.177245 -17.894465 0.000000 -0.000000 0.000000 13.406936 20.027839 -2.584437 12.882264 45.175170 25.873096 0.931539 13.227144 -2.504947 0.000000 -0.000000 0.000000 9.389468 -1.059138 -4.542852 5.109598 -11.592355 18.817556 -0.447342 0.366532 -11.293923 -6.360445 -9.540105 9.767802 10.637438 -1.404609 14.210474 -44.897225 -14.751758 9.572535 -36.447764 -12.368921 5.996805 24.115864 -28.732430 -29.152428 11.666556 -18.622881 -5.835576 26.246656 5.441677 3.604212 40.222564 -4.607813 -10.287056 -17.436721 5.694129 -39.054382 -13.858911 12.305239 -16.026062 
-1.025198 0.533299 1.029246 106.857033 6.445777 92.990090 4.651264 -10.496006 -21.141628 -1.358836 -24.204431 8.947353 2.992536 7.484138 -15.692545 0.000000 -0.000000 0.000000 13.554196 20.301732 -2.619721 13.354768 45.012921 26.180009 0.889385 14.194223 -2.340652 0.000000 -0.000000 0.000000 8.831295 -1.327776 -5.140872 5.639337 -11.911396 19.407160 -0.109186 0.163537 -11.797938 -6.214189 -8.140851 9.940562 10.339206 -1.047504 14.307884 -44.892200 -14.225702 9.805716 -36.277776 -13.341443 6.169288 26.160807 -32.422381 -28.479326 9.801169 -19.589810 -5.526550 27.405574 5.232912 3.605812 41.978566 -2.904249 -9.888550 -18.314097 4.559268 -41.127911 -11.740860 11.733799 -18.084869 
-1.014213 0.537359 1.027799 105.258199 6.985703 93.453851 5.029294 -10.612846 -20.063560 -0.911573 -24.079074 8.544765 4.961779 6.247056 -13.533251 0.000000 -0.000000 0.000000 13.688141 20.568183 -2.615175 13.735606 44.711339 26.433338 1.014081 15.225447 -2.071972 0.000000 -0.000000 0.000000 8.036225 -1.561001 -5.658331 6.303153 -12.074774 20.057428 0.353423 0.014103 -12.544470 -5.939570 -6.803876 10.002580 9.881328 -0.868916 14.647276 -44.757400 -13.584389 9.935663 -36.647522 -14.070310 6.452431 28.146765 -35.627511 -26.932714 7.563563 -20.585538 -3.570378 28.603093 5.130902 4.169466 43.558745 -0.948564 -9.023093 -19.100906 3.681926 -41.748907 -9.182320 11.479478 -19.003324 
-1.002458 0.541456 1.026110 103.905632 7.465689 94.077058 5.247408 -10.505454 -19.677879 -0.018563 -22.784815 7.889096 6.744001 6.721612 -12.035411 0.000000 -0.000000 0.000000 13.768968 20.876120 -2.751294 13.961680 44.145569 26.626330 1.262111 16.038152 -1.633876 0.000000 -0.000000 0.000000 7.052514 -1.644418 -6.245337 7.022314 -12.241678 20.719215 0.796822 -0.030854 -13.323889 -5.559245 -5.820886 9.930672 9.499089 -0.734923 14.934690 -44.376960 -12.989727 10.059868 -37.564558 -14.577447 6.925304 29.763962 -38.402986 -25.047097 5.426647 -21.068673 -1.011185 29.781750 5.247920 4.933119 44.920571 0.816342 -7.319758 -19.577242 3.488809 -40.549663 -6.630676 11.462063 -19.005138 
-0.990361 0.545607 1.025318 102.750789 7.688548 94.728817 5.574718 -10.415283 -19.934578 -0.087400 -21.547585 8.603967 7.188851 7.422410 -12.477188 0.000000 -0.000000 0.000000 13.706916 21.015049 -2.796171 13.934501 43.509026 26.744954 1.589646 16.624750 -1.014089 0.000000 -0.000000 0.000000 5.804281 -1.459543 -6.777114 7.617694 -12.267929 21.094403 1.233256 -0.008235 -13.826366 -4.928604 -5.027155 9.626467 9.062956 -0.984733 15.342515 -43.778856 -12.528742 10.052075 -38.974121 -14.938071 7.771700 30.378702 -40.262697 -23.031145 3.468900 -21.322918 1.443381 30.961991 5.686077 5.837421 46.019193 1.967340 -5.014502 -19.629848 4.547053 -37.398122 -4.141293 11.823944 -18.047794 
-0.977757 0.549774 1.025884 101.858116 7.595640 95.293869 5.990373 -10.959178 -20.642741 -0.991057 -20.076670 10.588909 7.241892 7.760142 -13.763016 0.000000 -0.000000 0.000000 13.437499 20.810026 -2.617053 13.691056 42.795554 26.735115 2.036739 17.106303 -0.149826 0.000000 -0.000000 0.000000 4.355170 -0.968736 -7.109289 7.956806 -12.104810 21.121632 1.615111 0.033623 -13.966634 -4.114690 -4.563612 9.077161 8.709434 -1.516530 15.576506 -42.664780 -12.233119 9.754374 -41.208752 -15.136543 9.160827 30.081312 -41.071513 -21.038698 1.105317 -21.509036 3.187894 31.916537 6.240467 6.605298 46.978138 2.589192 -2.135809 -19.344821 6.676256 -32.630998 -0.774779 12.508590 -15.751948 
-0.964568 0.553676 1.027562 101.185138 7.490115 95.681955 6.465602 -11.725538 -21.053349 -1.906896 -18.838779 12.301120 7.126316 8.194813 -14.971272 0.000000 -0.000000 0.000000 13.226882 20.398620 -2.095584 13.287581 41.910627 26.396151 2.585272 17.491899 0.948579 0.000000 -0.000000 0.000000 3.091068 -0.261363 -7.199794 8.082592 -11.673283 21.019371 1.828004 0.077670 -13.836927 -3.160107 -4.277965 8.269081 8.418399 -2.293465 15.494931 -40.974978 -12.108197 9.116301 -44.206771 -14.895167 11.093840 29.021066 -41.147095 -19.346127 -1.443508 -21.490529 3.473475 32.383398 7.039566 7.251329 47.676395 2.592373 1.481853 -18.396225 10.057595 -26.393365 3.016616 13.297607 -12.862475 
-0.950586 0.557788 1.029428 100.586790 7.434828 95.942167 6.674701 -12.056096 -20.676923 -2.379083 -17.903042 12.940179 7.265667 8.322332 -16.271957 0.000000 -0.000000 0.000000 12.832986 19.633844 -1.410880 12.963240 40.729862 25.656430 3.501455 18.084991 2.325680 0.000000 -0.000000 0.000000 2.103529 0.591723 -7.259138 7.981559 -10.984444 21.006300 1.868999 0.200288 -13.661631 -2.264736 -4.298245 7.355741 8.219894 -3.135905 15.309433 -39.293858 -12.380261 8.412676 -47.202146 -13.813774 12.958738 27.518967 -40.726490 -18.086316 -3.958021 -21.683591 2.842428 32.597403 8.217221 8.099495 47.248980 2.137236 5.143587 -16.400078 14.669935 -18.665387 7.335567 14.436690 -8.436247 
-0.935898 0.562240 1.030571 99.690852 7.198972 96.182183 6.505841 -11.866577 -19.656570 -2.620120 -16.816965 12.615457 7.876918 8.173932 -17.573273 0.000000 -0.000000 0.000000 11.841561 18.533065 -1.000218 12.956149 38.842969 25.045227 4.705581 18.896204 3.729519 0.000000 -0.000000 0.000000 1.098770 1.569315 -7.542733 7.579005 -10.039123 21.189480 1.704600 0.451172 -13.490835 -1.256444 -4.385308 6.864895 8.100291 -4.060659 14.815081 -37.949492 -12.852995 7.905799 -49.516446 -11.803763 14.191062 25.928875 -40.263246 -17.869428 -7.273077 -22.046520 2.892972 32.867980 9.678287 9.210963 45.835293 1.662130 7.879919 -14.184600 20.362596 -10.617537 12.545734 15.349157 -0.952998 
-0.920866 0.566285 1.030400 98.607100 6.676790 96.426010 5.991923 -11.369054 -18.393345 -2.950889 -16.099395 11.775662 8.647482 8.315499 -18.558895 0.000000 -0.000000 0.000000 10.222075 16.847046 -1.428995 13.588612 35.456309 25.512988 6.369930 18.861875 4.551784 0.000000 -0.000000 0.000000 -0.198071 2.526039 -7.841832 7.004488 -8.876445 21.189860 1.322497 0.849434 -13.084010 -0.285439 -4.774851 6.511858 8.316819 -4.726016 14.253503 -37.016895 -12.837060 7.490247 -50.506936 -9.784926 15.049776 22.845422 -39.789321 -16.258216 -8.065763 -22.277019 2.679882 33.157312 10.941765 10.126793 44.144159 1.664829 9.380172 -11.586848 26.480797 -4.094234 14.130563 16.054641 5.994691 
